3_states
version=1
nRows=31
nColumns=17
inDegrees=yes

# SIMM Motion File Header:
name 3_states
datacolumns 17
datarows 31
otherdata 1
range 0.385475 0.432735
endheader
time	/jointset/r_shoulder/r_shoulder_elev/value	/jointset/r_shoulder/r_shoulder_elev/speed	/jointset/r_elbow/r_elbow_flex/value	/jointset/r_elbow/r_elbow_flex/speed	/forceset/TRIlong/activation	/forceset/TRIlong/fiber_length	/forceset/TRIlat/activation	/forceset/TRIlat/fiber_length	/forceset/TRImed/activation	/forceset/TRImed/fiber_length	/forceset/BIClong/activation	/forceset/BIClong/fiber_length	/forceset/BICshort/activation	/forceset/BICshort/fiber_length	/forceset/BRA/activation	/forceset/BRA/fiber_length
      0.385475	      0.001795	      0.034342	     86.086237	   -139.907087	      0.020000	      0.168439	      0.449991	      0.101514	      0.445633	      0.096588	      0.241238	      0.099012	      0.020000	      0.100511	      0.020000	      0.070045
      0.386973	      0.001847	      0.034810	     85.876672	   -139.909824	      0.020000	      0.168370	      0.448942	      0.101444	      0.444532	      0.096518	      0.240499	      0.099193	      0.020000	      0.100687	      0.020000	      0.070124
      0.388471	      0.001898	      0.033853	     85.667104	   -139.907246	      0.020000	      0.168301	      0.447939	      0.101375	      0.443480	      0.096448	      0.239785	      0.099373	      0.020000	      0.100862	      0.020000	      0.070206
      0.389969	      0.001949	      0.034024	     85.457539	   -139.908520	      0.020000	      0.168232	      0.446981	      0.101305	      0.442473	      0.096379	      0.239094	      0.099552	      0.020000	      0.101036	      0.020000	      0.070285
      0.391467	      0.001999	      0.033225	     85.247973	   -139.905499	      0.020000	      0.168164	      0.445882	      0.101235	      0.441325	      0.096309	      0.238355	      0.099732	      0.020000	      0.101211	      0.020000	      0.070367
      0.392964	      0.002049	      0.033498	     85.038411	   -139.906340	      0.020000	      0.168095	      0.444671	      0.101165	      0.440061	      0.096239	      0.237578	      0.099912	      0.020000	      0.101386	      0.020000	      0.070446
      0.394462	      0.002099	      0.032985	     84.828848	   -139.904759	      0.020000	      0.168026	      0.443513	      0.101095	      0.438854	      0.096170	      0.236827	      0.100091	      0.020000	      0.101560	      0.020000	      0.070527
      0.395960	      0.002148	      0.033063	     84.619286	   -139.905891	      0.020000	      0.167957	      0.442406	      0.101026	      0.437699	      0.096100	      0.236100	      0.100271	      0.020000	      0.101734	      0.020000	      0.070607
      0.397843	      0.002210	      0.031879	     84.355924	   -139.902881	      0.020000	      0.167871	      0.441084	      0.100938	      0.436319	      0.096013	      0.235220	      0.100496	      0.020000	      0.101953	      0.020000	      0.070709
      0.399197	      0.002254	      0.032193	     84.166425	   -139.904894	      0.020000	      0.167809	      0.440178	      0.100875	      0.435373	      0.095950	      0.234609	      0.100658	      0.020000	      0.102111	      0.020000	      0.070780
      0.400552	      0.002297	      0.031462	     83.976925	   -139.902608	      0.020000	      0.167746	      0.439287	      0.100812	      0.434442	      0.095887	      0.234009	      0.100819	      0.020000	      0.102268	      0.020000	      0.070852
      0.402427	      0.002356	      0.032337	     83.714506	   -139.905833	      0.020000	      0.167660	      0.437766	      0.100725	      0.432838	      0.095800	      0.233075	      0.101043	      0.020000	      0.102485	      0.020000	      0.070951
      0.404096	      0.002410	      0.032144	     83.481077	   -139.905655	      0.020000	      0.167584	      0.436446	      0.100647	      0.431445	      0.095723	      0.232263	      0.101242	      0.020000	      0.102679	      0.020000	      0.071042
      0.405764	      0.002464	      0.033155	     83.247647	   -139.910337	      0.020000	      0.167507	      0.435190	      0.100570	      0.430119	      0.095645	      0.231480	      0.101441	      0.020000	      0.102872	      0.020000	      0.071128
      0.407185	      0.002511	      0.032113	     83.048933	   -139.907600	      0.020000	      0.167442	      0.434170	      0.100504	      0.429041	      0.095580	      0.230836	      0.101610	      0.020000	      0.103036	      0.020000	      0.071205
      0.408605	      0.002556	      0.032063	     82.850221	   -139.908464	      0.020000	      0.167377	      0.433191	      0.100438	      0.428008	      0.095514	      0.230212	      0.101779	      0.020000	      0.103200	      0.020000	      0.071279
      0.410323	      0.002611	      0.030891	     82.609784	   -139.904976	      0.020000	      0.167298	      0.432046	      0.100358	      0.426799	      0.095434	      0.229477	      0.101983	      0.020000	      0.103399	      0.020000	      0.071370
      0.412042	      0.002664	      0.030933	     82.369353	   -139.905227	      0.020000	      0.167219	      0.430681	      0.100279	      0.425361	      0.095355	      0.228669	      0.102186	      0.020000	      0.103597	      0.020000	      0.071459
      0.413550	      0.002710	      0.029731	     82.158350	   -139.901108	      0.020000	      0.167150	      0.429457	      0.100209	      0.424075	      0.095285	      0.227956	      0.102365	      0.020000	      0.103771	      0.020000	      0.071540
      0.415058	      0.002754	      0.029767	     81.947351	   -139.902005	      0.020000	      0.167081	      0.428288	      0.100139	      0.422844	      0.095215	      0.227265	      0.102544	      0.020000	      0.103944	      0.020000	      0.071618
      0.416567	      0.002798	      0.028695	     81.736352	   -139.899270	      0.020000	      0.167012	      0.427169	      0.100069	      0.421667	      0.095145	      0.226597	      0.102722	      0.020000	      0.104118	      0.020000	      0.071698
      0.418394	      0.002850	      0.028190	     81.480754	   -139.898955	      0.020000	      0.166928	      0.425879	      0.099984	      0.420308	      0.095061	      0.225817	      0.102938	      0.020000	      0.104328	      0.020000	      0.071792
      0.419964	      0.002893	      0.026609	     81.261044	   -139.894225	      0.020000	      0.166857	      0.424824	      0.099912	      0.419197	      0.094988	      0.225170	      0.103123	      0.020000	      0.104508	      0.020000	      0.071876
      0.421535	      0.002935	      0.026460	     81.041339	   -139.894077	      0.020000	      0.166785	      0.423625	      0.099839	      0.417934	      0.094916	      0.224480	      0.103308	      0.020000	      0.104688	      0.020000	      0.071956
      0.423105	      0.002976	      0.025370	     80.821635	   -139.890471	      0.020000	      0.166713	      0.422318	      0.099766	      0.416559	      0.094843	      0.223758	      0.103493	      0.020000	      0.104868	      0.020000	      0.072039
      0.424676	      0.003015	      0.025252	     80.601935	   -139.890850	      0.020000	      0.166641	      0.421071	      0.099694	      0.415245	      0.094771	      0.223060	      0.103678	      0.020000	      0.105048	      0.020000	      0.072120
      0.426246	      0.003054	      0.024214	     80.382236	   -139.888368	      0.020000	      0.166569	      0.419880	      0.099621	      0.413990	      0.094698	      0.222386	      0.103863	      0.020000	      0.105227	      0.020000	      0.072202
      0.428161	      0.003100	      0.023761	     80.114322	   -139.888456	      0.020000	      0.166481	      0.418499	      0.099532	      0.412535	      0.094610	      0.221594	      0.104088	      0.020000	      0.105446	      0.020000	      0.072300
      0.429686	      0.003135	      0.022195	     79.901056	   -139.883978	      0.020000	      0.166412	      0.417454	      0.099462	      0.411433	      0.094540	      0.220986	      0.104266	      0.020000	      0.105620	      0.020000	      0.072380
      0.431211	      0.003168	      0.021905	     79.687795	   -139.883505	      0.020000	      0.166342	      0.416325	      0.099392	      0.410239	      0.094469	      0.220355	      0.104445	      0.020000	      0.105793	      0.020000	      0.072458
      0.432735	      0.003201	      0.021062	     79.474536	   -139.880828	      0.020000	      0.166272	      0.415031	      0.099321	      0.408867	      0.094399	      0.219672	      0.104623	      0.020000	      0.105967	      0.020000	      0.072537
